<svg xmlns="http://www.w3.org/2000/svg" viewBox="0 0 450 274.95"><defs><style>.a{fill:#0f0c0d;}.a,.k{fill-rule:evenodd;}.b{fill:#2f383f;}.c{fill:#3f60a8;fill-opacity:0.4;}.d{fill:#3e5fa8;}.e{fill:#fff;}.f{fill:#21262c;}.g{fill:#326de6;}.h{fill:#326de5;}.i{fill:#161a1d;}.j,.k{fill:#0f1689;}.l{stroke:#000;stroke-width:0.25px;}</style></defs><path class="a" d="M44.51,247.94a19.83,19.83,0,0,0-6.26,38.65c1,.18,1.35-.43,1.35-.95s0-1.72,0-3.38c-5.51,1.2-6.68-2.66-6.68-2.66a5.25,5.25,0,0,0-2.2-2.9c-1.8-1.23.14-1.2.14-1.2a4.17,4.17,0,0,1,3,2,4.22,4.22,0,0,0,5.77,1.65,4.2,4.2,0,0,1,1.26-2.65c-4.41-.5-9-2.2-9-9.8a7.64,7.64,0,0,1,2-5.32,7.09,7.09,0,0,1,.19-5.25s1.66-.54,5.45,2a18.73,18.73,0,0,1,9.93,0c3.79-2.57,5.45-2,5.45-2a7.17,7.17,0,0,1,.2,5.25,7.63,7.63,0,0,1,2,5.32c0,7.62-4.64,9.29-9.06,9.78a4.77,4.77,0,0,1,1.35,3.68c0,2.65,0,4.79,0,5.44s.36,1.14,1.37.95a19.84,19.84,0,0,0-6.29-38.65Z" transform="translate(-24.69 -112.33)"/><path class="b" d="M40.89,299.43h3v4.16a8.94,8.94,0,0,1-1.43.34A10,10,0,0,1,41,304a3.75,3.75,0,0,1-2.9-1.11,4.48,4.48,0,0,1-1-3.14,4.16,4.16,0,0,1,1.15-3.13,4.3,4.3,0,0,1,3.17-1.13,6.08,6.08,0,0,1,2.46.5l-.48,1.12a4.75,4.75,0,0,0-2-.46,2.72,2.72,0,0,0-2.09.83,3.21,3.21,0,0,0-.77,2.28,3.43,3.43,0,0,0,.69,2.31,2.54,2.54,0,0,0,2,.79,6.51,6.51,0,0,0,1.4-.17v-2.13H40.89Z" transform="translate(-24.69 -112.33)"/><path class="b" d="M45.7,296a.68.68,0,0,1,.76-.74.73.73,0,0,1,.54.19.74.74,0,0,1,.2.55.68.68,0,0,1-.74.73.75.75,0,0,1-.56-.19A.73.73,0,0,1,45.7,296Zm1.41,7.93H45.78v-6.27h1.33Z" transform="translate(-24.69 -112.33)"/><path class="b" d="M51.35,303a3,3,0,0,0,1-.16v1a3.71,3.71,0,0,1-.57.16A4.4,4.4,0,0,1,51,304c-1.26,0-1.89-.66-1.89-2v-3.38h-.85v-.59l.91-.49.46-1.32h.82v1.39h1.78v1H50.48V302a1,1,0,0,0,.24.71A.89.89,0,0,0,51.35,303Z" transform="translate(-24.69 -112.33)"/><path class="c" d="M331.68,246.64H304.3a2.37,2.37,0,0,0-2.38,2.38v31.66a2.37,2.37,0,0,0,2.38,2.38h27.38a2.38,2.38,0,0,0,2.39-2.38V249A2.38,2.38,0,0,0,331.68,246.64Z" transform="translate(-24.69 -112.33)"/><path class="c" d="M335.65,250.61H308.27a2.39,2.39,0,0,0-2.38,2.38v31.66a2.39,2.39,0,0,0,2.38,2.39h27.38a2.39,2.39,0,0,0,2.39-2.39V253A2.39,2.39,0,0,0,335.65,250.61Z" transform="translate(-24.69 -112.33)"/><path class="d" d="M312.09,254.58h26.12A2.39,2.39,0,0,1,340.6,257v30.28a2.39,2.39,0,0,1-2.39,2.39H312.09a2.38,2.38,0,0,1-2.38-2.39V257A2.38,2.38,0,0,1,312.09,254.58Z" transform="translate(-24.69 -112.33)"/><path class="e" d="M318.1,262.16v18.9h2.52v-6.62l3.15-2.94,6.83,9.56h3.18l-8.29-11.28,8-7.62H330.2l-9.58,9.42v-9.42Z" transform="translate(-24.69 -112.33)"/><path class="b" d="M299.35,304.77h-1.57l-2.6-3.75-.8.65v3.1H293v-8.28h1.35v3.95c.37-.45.74-.89,1.11-1.3l2.23-2.65h1.55l-3.11,3.63Z" transform="translate(-24.69 -112.33)"/><path class="b" d="M304.72,304.77l-.18-.82h-.07a2,2,0,0,1-.79.69,2.75,2.75,0,0,1-1.17.25,2.28,2.28,0,0,1-1.7-.57,2.33,2.33,0,0,1-.56-1.72v-4.09h1.34v3.86a1.72,1.72,0,0,0,.29,1.08,1.14,1.14,0,0,0,.93.36,1.47,1.47,0,0,0,1.23-.5,2.81,2.81,0,0,0,.39-1.68v-3.12h1.34v6.26Z" transform="translate(-24.69 -112.33)"/><path class="b" d="M311.88,303a1.64,1.64,0,0,1-.67,1.41,3.26,3.26,0,0,1-1.92.49,4.59,4.59,0,0,1-2-.38v-1.15a5,5,0,0,0,2.06.51q1.23,0,1.23-.75a.58.58,0,0,0-.14-.39,1.52,1.52,0,0,0-.44-.33q-.32-.16-.87-.39a4.11,4.11,0,0,1-1.47-.83,1.59,1.59,0,0,1-.38-1.09,1.42,1.42,0,0,1,.65-1.25,3.05,3.05,0,0,1,1.77-.45,5,5,0,0,1,2.09.45l-.43,1a4.68,4.68,0,0,0-1.71-.42c-.7,0-1.05.2-1.05.61a.59.59,0,0,0,.27.49,5.27,5.27,0,0,0,1.2.56,6.62,6.62,0,0,1,1.13.55,1.67,1.67,0,0,1,.52.58A1.73,1.73,0,0,1,311.88,303Z" transform="translate(-24.69 -112.33)"/><path class="b" d="M315.65,303.81a3.33,3.33,0,0,0,1-.15v1a2.84,2.84,0,0,1-.57.16,3.48,3.48,0,0,1-.73.07c-1.26,0-1.89-.67-1.89-2v-3.37h-.85v-.59l.91-.49.46-1.33h.82v1.4h1.78v1h-1.78v3.35a.94.94,0,0,0,.24.71A.89.89,0,0,0,315.65,303.81Z" transform="translate(-24.69 -112.33)"/><path class="b" d="M323.44,301.63a3.42,3.42,0,0,1-.79,2.4,2.83,2.83,0,0,1-2.19.86,3,3,0,0,1-1.55-.4,2.56,2.56,0,0,1-1-1.14,3.89,3.89,0,0,1-.36-1.72,3.4,3.4,0,0,1,.78-2.38,2.83,2.83,0,0,1,2.2-.86,2.72,2.72,0,0,1,2.15.88A3.37,3.37,0,0,1,323.44,301.63Zm-4.56,0c0,1.45.53,2.17,1.6,2.17s1.59-.72,1.59-2.17-.54-2.15-1.6-2.15a1.37,1.37,0,0,0-1.22.56A2.83,2.83,0,0,0,318.88,301.63Z" transform="translate(-24.69 -112.33)"/><path class="b" d="M330.25,304.77h-1.34v-3.86a1.79,1.79,0,0,0-.27-1.08,1,1,0,0,0-.85-.35,1.31,1.31,0,0,0-1.13.5,3,3,0,0,0-.36,1.67v3.12H325v-6.26h1l.19.82h.06a1.76,1.76,0,0,1,.76-.69,2.36,2.36,0,0,1,1.09-.25,1.91,1.91,0,0,1,1.92,1h.09a1.9,1.9,0,0,1,.78-.73,2.54,2.54,0,0,1,1.16-.26,2.1,2.1,0,0,1,1.63.57,2.52,2.52,0,0,1,.51,1.73v4.08h-1.33v-3.86a1.79,1.79,0,0,0-.27-1.08,1,1,0,0,0-.86-.35,1.3,1.3,0,0,0-1.13.49,2.46,2.46,0,0,0-.36,1.48Z" transform="translate(-24.69 -112.33)"/><path class="b" d="M336,296.85a.73.73,0,0,1,.2-.55.77.77,0,0,1,.56-.2.69.69,0,0,1,.74.75.72.72,0,0,1-.2.53.73.73,0,0,1-.54.2.77.77,0,0,1-.56-.2A.72.72,0,0,1,336,296.85Zm1.41,7.92h-1.33v-6.26h1.33Z" transform="translate(-24.69 -112.33)"/><path class="b" d="M343.49,304.77h-4.76V304l3.17-4.42h-3v-1h4.47v.93l-3.1,4.31h3.2Z" transform="translate(-24.69 -112.33)"/><path class="b" d="M347.58,304.89a3,3,0,0,1-2.28-.86,3.21,3.21,0,0,1-.83-2.34,3.57,3.57,0,0,1,.77-2.42,2.66,2.66,0,0,1,2.1-.88,2.55,2.55,0,0,1,2,.76,2.87,2.87,0,0,1,.72,2.07v.72h-4.18a2,2,0,0,0,.5,1.4,1.69,1.69,0,0,0,1.3.49,4.9,4.9,0,0,0,1-.1,5.7,5.7,0,0,0,1-.35v1.08a3.84,3.84,0,0,1-1,.33A6.36,6.36,0,0,1,347.58,304.89Zm-.24-5.49a1.39,1.39,0,0,0-1,.4,1.9,1.9,0,0,0-.45,1.18h2.84a1.77,1.77,0,0,0-.37-1.18A1.32,1.32,0,0,0,347.34,299.4Z" transform="translate(-24.69 -112.33)"/><path class="f" d="M450.72,242.77V249a3.56,3.56,0,0,1-.48,1.87,3.14,3.14,0,0,1-1.38,1.24,4.94,4.94,0,0,1-2.15.43,4.13,4.13,0,0,1-2.89-.95,3.39,3.39,0,0,1-1-2.62v-6.23h2v5.92a2.47,2.47,0,0,0,.45,1.64,1.87,1.87,0,0,0,1.49.52,1.84,1.84,0,0,0,1.46-.52,2.5,2.5,0,0,0,.45-1.65v-5.91Z" transform="translate(-24.69 -112.33)"/><path class="f" d="M459,252.44l-.7-2.3h-3.52l-.7,2.3h-2.21l3.41-9.71h2.51l3.42,9.71Zm-1.19-4c-.64-2.09-1-3.26-1.09-3.54s-.14-.49-.18-.65c-.14.57-.56,2-1.25,4.19Z" transform="translate(-24.69 -112.33)"/><path class="f" d="M466.16,252.44h-2.05v-8h-2.63v-1.71h7.3v1.71h-2.62Z" transform="translate(-24.69 -112.33)"/><path class="g" d="M468.6,267.54a2.45,2.45,0,0,0-1.2-1.39L456,260.67a2.11,2.11,0,0,0-.94-.19,4.26,4.26,0,0,0-.94.07l-11.45,5.52a2,2,0,0,0-1.12,1.39l-2.86,12.35a2.35,2.35,0,0,0,.42,1.8l7.92,9.8a2.75,2.75,0,0,0,1.72.79h12.66a1.84,1.84,0,0,0,1.72-.79l7.92-9.8a2.56,2.56,0,0,0,.46-1.8Z" transform="translate(-24.69 -112.33)"/><path class="e" d="M466.8,279.32h0s0,0,0,0-.11,0-.15,0a1.71,1.71,0,0,0-.45,0,.43.43,0,0,1-.22,0h0a7.3,7.3,0,0,1-1.28-.22.47.47,0,0,1-.26-.26,0,0,0,0,0,0,0h0l-.3-.08a9.66,9.66,0,0,0-.15-3.3,10.12,10.12,0,0,0-1.31-3.08l.22-.22h0v0a.52.52,0,0,1,.12-.34,6.24,6.24,0,0,1,1.05-.71h0l.22-.12c.15-.07.26-.15.42-.22s.07,0,.11-.08l0,0h0a.73.73,0,0,0-.38-1.32.92.92,0,0,0-.53.19h0l0,0a.19.19,0,0,1-.12.07,4.31,4.31,0,0,0-.3.34c0,.08-.11.11-.15.15h0a6.65,6.65,0,0,1-.94.83.63.63,0,0,1-.22.07.21.21,0,0,1-.15,0h0l-.3.23c-.3-.3-.64-.6-.94-.9a9.56,9.56,0,0,0-4.88-1.95l0-.3h0l0,0a.5.5,0,0,1-.18-.3,8.1,8.1,0,0,1,.07-1.28v0c0-.07,0-.15,0-.22s0-.3.07-.45v-.23h0a.68.68,0,0,0-.63-.75.85.85,0,0,0-.6.23.75.75,0,0,0-.23.52h0v.19a1.78,1.78,0,0,0,.08.45.61.61,0,0,1,0,.23v0a6.72,6.72,0,0,1,.08,1.28.54.54,0,0,1-.19.3l0,0h0l0,.3c-.42,0-.83.11-1.28.19a8.86,8.86,0,0,0-4.62,2.63l-.22-.16h0s-.08,0-.15,0a.48.48,0,0,1-.23-.07c-.33-.27-.64-.57-.94-.87h0c0-.07-.11-.11-.15-.15s-.18-.22-.3-.33-.07,0-.11-.08l0,0h0a.88.88,0,0,0-.52-.18.66.66,0,0,0-.56.26.79.79,0,0,0,.15,1.05h0s0,0,0,0,.08.07.12.07a3.76,3.76,0,0,0,.41.23l.22.11h0a10.14,10.14,0,0,1,1.05.71.37.37,0,0,1,.12.34v0h0l.22.22a1.18,1.18,0,0,1-.11.19A9,9,0,0,0,446,278.5l-.3.07h0s0,0,0,0a.57.57,0,0,1-.27.26,6.48,6.48,0,0,1-1.27.23h0a.47.47,0,0,0-.23,0l-.45,0s-.07,0-.15,0,0,0-.07,0h0a.72.72,0,0,0-.6.86.69.69,0,0,0,.75.53.34.34,0,0,0,.19,0h0s0,0,0,0,.08,0,.15,0,.3-.12.42-.15a.49.49,0,0,1,.22-.08h0a6.64,6.64,0,0,1,1.2-.34h0a.42.42,0,0,1,.3.12s0,0,0,0h0l.33,0a9.18,9.18,0,0,0,3.08,4.39,5.61,5.61,0,0,0,1,.67l-.15.3h0s0,0,0,0a.43.43,0,0,1,0,.38,6.12,6.12,0,0,1-.6,1.09v0a.53.53,0,0,1-.15.19c-.07.08-.15.23-.26.38s0,.07-.08.11a0,0,0,0,1,0,0h0a.78.78,0,0,0,.31,1,.63.63,0,0,0,.3.08.84.84,0,0,0,.71-.45h0a0,0,0,0,1,0,0,.19.19,0,0,1,.07-.12c0-.15.11-.26.15-.41l.08-.22h0a6.68,6.68,0,0,1,.48-1.17.62.62,0,0,1,.31-.22s0,0,0,0h0l.15-.3a8.9,8.9,0,0,0,3.27.6,9.41,9.41,0,0,0,2-.22c.41-.08.82-.23,1.2-.34l.15.26h0s0,0,0,0a.64.64,0,0,1,.3.22c.18.38.33.75.48,1.13v0l.08.22a1.25,1.25,0,0,0,.15.41s0,.08.07.12a0,0,0,0,0,0,0h0a.84.84,0,0,0,.72.45.9.9,0,0,0,.3-.08.58.58,0,0,0,.33-.41,1.11,1.11,0,0,0,0-.6h0a0,0,0,0,0,0,0s0-.08-.08-.11a1.28,1.28,0,0,0-.26-.38.77.77,0,0,0-.15-.19v0a4.68,4.68,0,0,1-.6-1.09.43.43,0,0,1,0-.38s0,0,0,0h0l-.11-.3a9.31,9.31,0,0,0,4.09-5.1l.3,0h0a0,0,0,0,0,0,0,.41.41,0,0,1,.3-.11h0a5.9,5.9,0,0,1,1.2.33h0a.49.49,0,0,0,.22.08,2.35,2.35,0,0,0,.42.15s.07,0,.15,0,0,0,.07,0h0a.33.33,0,0,0,.19,0,.81.81,0,0,0,.75-.52A1,1,0,0,0,466.8,279.32ZM456,278.16l-1,.49-1-.49-.3-1.09.71-.9h1.17l.71.9Zm6.12-2.44a7.58,7.58,0,0,1,.15,2.37l-3.57-1h0a.61.61,0,0,1-.45-.75.66.66,0,0,1,.15-.26l2.82-2.55a7.67,7.67,0,0,1,.9,2.21Zm-2-3.6-3,2.17a.64.64,0,0,1-.83-.15.35.35,0,0,1-.11-.26l-.22-3.79A7.18,7.18,0,0,1,460.08,272.12Zm-6.8-1.92.76-.15-.23,3.76h0a.63.63,0,0,1-.64.6.84.84,0,0,1-.3-.08l-3-2.21A7.17,7.17,0,0,1,453.28,270.2Zm-4.58,3.31,2.78,2.47h0a.61.61,0,0,1,.08.87.41.41,0,0,1-.3.18l-3.61,1.06A7.62,7.62,0,0,1,448.7,273.51Zm-.63,6.34,3.71-.64a.62.62,0,0,1,.64.49.43.43,0,0,1,0,.38h0L451,283.53A7.32,7.32,0,0,1,448.07,279.85Zm8.52,4.66a8.18,8.18,0,0,1-1.65.18,8.62,8.62,0,0,1-2.37-.37l1.84-3.34a.58.58,0,0,1,.75-.15,1.74,1.74,0,0,1,.3.26h0l1.8,3.27A5,5,0,0,0,456.59,284.51Zm4.58-3.27a7.11,7.11,0,0,1-2.25,2.25L457.45,280a.64.64,0,0,1,.34-.75,1,1,0,0,1,.34-.08l3.75.64A5.62,5.62,0,0,1,461.17,281.24Z" transform="translate(-24.69 -112.33)"/><path class="h" d="M437.08,297.81c.11-.12.21-.24.33-.36l.33-.37.3-.35.25-.29h1.28l-.75.85c-.25.27-.51.55-.8.83a5,5,0,0,1,.45.47l.45.57c.14.19.28.39.4.58s.22.37.3.53h-1.23l-.27-.41c-.1-.15-.21-.3-.31-.46a4.94,4.94,0,0,0-.36-.44,3.06,3.06,0,0,0-.36-.36v1.68H436v-5.5l1.09-.17v3.2" transform="translate(-24.69 -112.33)"/><path class="h" d="M443.39,300.12a6.1,6.1,0,0,1-.72.14,5.58,5.58,0,0,1-.91.07,2.22,2.22,0,0,1-.81-.13,1.32,1.32,0,0,1-.51-.36,1.5,1.5,0,0,1-.27-.57,2.92,2.92,0,0,1-.08-.73v-2.11h1.08v2a1.54,1.54,0,0,0,.14.76.57.57,0,0,0,.51.24h.25a1.43,1.43,0,0,0,.23,0v-2.95h1.09v3.69" transform="translate(-24.69 -112.33)"/><path class="h" d="M446.85,298.31c0-.7-.26-1-.77-1a1.24,1.24,0,0,0-.33,0,.85.85,0,0,0-.26.11v2l.2,0H446a.76.76,0,0,0,.67-.3,1.47,1.47,0,0,0,.22-.82m1.11,0a2.39,2.39,0,0,1-.14.84,1.69,1.69,0,0,1-.38.63,1.76,1.76,0,0,1-.63.41,2.39,2.39,0,0,1-.84.14l-.41,0-.42,0-.39-.07a1.29,1.29,0,0,1-.33-.1v-5.36l1.08-.17v1.91a2.4,2.4,0,0,1,.38-.12,2,2,0,0,1,.42,0,1.71,1.71,0,0,1,.73.15,1.45,1.45,0,0,1,.52.4,1.71,1.71,0,0,1,.32.63,3.05,3.05,0,0,1,.09.81" transform="translate(-24.69 -112.33)"/><path class="h" d="M448.61,298.37a2.4,2.4,0,0,1,.15-.88,1.89,1.89,0,0,1,.41-.64,1.58,1.58,0,0,1,.58-.38,1.8,1.8,0,0,1,.69-.13,1.68,1.68,0,0,1,1.28.5,2.07,2.07,0,0,1,.47,1.46,1.62,1.62,0,0,1,0,.21,1.62,1.62,0,0,0,0,.21h-2.46a.7.7,0,0,0,.31.52,1.32,1.32,0,0,0,.75.2,3.79,3.79,0,0,0,.58-.05,2.54,2.54,0,0,0,.47-.14l.15.88a1.57,1.57,0,0,1-.23.09,1.94,1.94,0,0,1-.33.07l-.38.06-.41,0a2.32,2.32,0,0,1-.91-.15,1.62,1.62,0,0,1-1-1,3.74,3.74,0,0,1-.1-.81m2.54-.41a.86.86,0,0,0,0-.27.63.63,0,0,0-.12-.23.68.68,0,0,0-.21-.17.67.67,0,0,0-.31-.07.68.68,0,0,0-.32.07.69.69,0,0,0-.22.16.72.72,0,0,0-.14.24,1.31,1.31,0,0,0-.06.27h1.43" transform="translate(-24.69 -112.33)"/><path class="h" d="M455.34,297.39l-.34-.07a2,2,0,0,0-.42,0l-.25,0-.21,0v2.92H453v-3.63a5.27,5.27,0,0,1,.68-.19,3.41,3.41,0,0,1,.89-.09h.21l.25,0,.25,0a.83.83,0,0,1,.21.06l-.18.9" transform="translate(-24.69 -112.33)"/><path class="h" d="M456.1,296.56c.23-.06.47-.11.71-.15a5.62,5.62,0,0,1,.92-.07,2.2,2.2,0,0,1,.8.13,1.14,1.14,0,0,1,.51.35,1.42,1.42,0,0,1,.27.55,2.81,2.81,0,0,1,.08.71v2.16h-1.08v-2a1.48,1.48,0,0,0-.14-.74.56.56,0,0,0-.51-.22h-.26l-.23,0v2.95h-1.08v-3.68" transform="translate(-24.69 -112.33)"/><path class="h" d="M460.21,298.37a2.4,2.4,0,0,1,.15-.88,1.89,1.89,0,0,1,.41-.64,1.62,1.62,0,0,1,.59-.38,1.79,1.79,0,0,1,.68-.13,1.68,1.68,0,0,1,1.28.5,2.07,2.07,0,0,1,.47,1.46,1.62,1.62,0,0,1,0,.21c0,.08,0,.15,0,.21h-2.45a.7.7,0,0,0,.31.52,1.29,1.29,0,0,0,.74.2,3.79,3.79,0,0,0,.58-.05,2.54,2.54,0,0,0,.47-.14l.15.88a1.57,1.57,0,0,1-.23.09,1.94,1.94,0,0,1-.33.07l-.38.06-.41,0a2.3,2.3,0,0,1-.9-.15,1.8,1.8,0,0,1-.64-.41,1.75,1.75,0,0,1-.37-.63,2.81,2.81,0,0,1-.1-.81m2.54-.41a.86.86,0,0,0-.05-.27.55.55,0,0,0-.12-.24.68.68,0,0,0-.21-.17.72.72,0,0,0-.62,0,.69.69,0,0,0-.22.16.72.72,0,0,0-.14.24,1.31,1.31,0,0,0-.06.27h1.42" transform="translate(-24.69 -112.33)"/><path class="h" d="M464.6,295.48l1.08-.17v1.12H467v.9h-1.3v1.35a1,1,0,0,0,.12.54.53.53,0,0,0,.49.2,2,2,0,0,0,.35,0,1.89,1.89,0,0,0,.34-.09l.15.84a3.22,3.22,0,0,1-.44.14,2.88,2.88,0,0,1-.59.06,1.81,1.81,0,0,1-.73-.12,1.18,1.18,0,0,1-.46-.33,1.39,1.39,0,0,1-.25-.52,2.54,2.54,0,0,1-.06-.67v-3.22" transform="translate(-24.69 -112.33)"/><path class="h" d="M467.53,298.37a2.4,2.4,0,0,1,.15-.88,1.78,1.78,0,0,1,.42-.64,1.58,1.58,0,0,1,.58-.38,1.79,1.79,0,0,1,.68-.13,1.68,1.68,0,0,1,1.28.5,2.07,2.07,0,0,1,.47,1.46,1.62,1.62,0,0,1,0,.21c0,.08,0,.15,0,.21h-2.45a.73.73,0,0,0,.31.52,1.29,1.29,0,0,0,.74.2,3.79,3.79,0,0,0,.58-.05,2.54,2.54,0,0,0,.47-.14l.15.88a1.57,1.57,0,0,1-.23.09,1.94,1.94,0,0,1-.33.07l-.38.06-.41,0a2.3,2.3,0,0,1-.9-.15,1.76,1.76,0,0,1-.63-.41,1.64,1.64,0,0,1-.38-.63,3.74,3.74,0,0,1-.1-.81m2.55-.41a.86.86,0,0,0-.05-.27.68.68,0,0,0-.12-.24.68.68,0,0,0-.21-.17.72.72,0,0,0-.62,0,.69.69,0,0,0-.22.16.72.72,0,0,0-.14.24,1.31,1.31,0,0,0-.06.27h1.42" transform="translate(-24.69 -112.33)"/><path class="h" d="M473.06,299.48a1,1,0,0,0,.42-.06.22.22,0,0,0,.12-.22.25.25,0,0,0-.16-.22,2.16,2.16,0,0,0-.49-.22,2.78,2.78,0,0,1-.46-.21,1.36,1.36,0,0,1-.35-.24,1,1,0,0,1-.22-.34,1.26,1.26,0,0,1-.08-.47,1,1,0,0,1,.4-.85,1.72,1.72,0,0,1,1.09-.31,3.79,3.79,0,0,1,.67.06,3.18,3.18,0,0,1,.51.13l-.19.84-.41-.12a2,2,0,0,0-.49,0c-.34,0-.51.09-.51.28a.5.5,0,0,0,0,.12.28.28,0,0,0,.09.1l.17.1a1.7,1.7,0,0,0,.29.12,4.41,4.41,0,0,1,.59.26,1.09,1.09,0,0,1,.36.28.88.88,0,0,1,.19.34,1.52,1.52,0,0,1,.06.42,1,1,0,0,1-.43.86,2.13,2.13,0,0,1-1.2.29,3,3,0,0,1-.85-.09l-.46-.14.18-.88a3.62,3.62,0,0,0,.56.17,5.11,5.11,0,0,0,.58,0" transform="translate(-24.69 -112.33)"/><path class="f" d="M434.31,160.61a4.76,4.76,0,0,1-1.36,3.66,5.55,5.55,0,0,1-3.92,1.27h-2.74v-9.67h3a5.12,5.12,0,0,1,3.67,1.25A4.57,4.57,0,0,1,434.31,160.61Zm-2.13,0c0-2.07-.91-3.11-2.75-3.11h-1.09v6.29h.88C431.2,163.84,432.18,162.78,432.18,160.66Z" transform="translate(-24.69 -112.33)"/><path class="f" d="M439.5,165.67a3.8,3.8,0,0,1-2.79-1,3.71,3.71,0,0,1-1-2.79,4.16,4.16,0,0,1,.92-2.87,3.3,3.3,0,0,1,2.57-1,3.23,3.23,0,0,1,2.44.89,3.37,3.37,0,0,1,.87,2.46v1h-4.76a1.94,1.94,0,0,0,.51,1.35,1.79,1.79,0,0,0,1.33.48,5.75,5.75,0,0,0,1.27-.14,6.4,6.4,0,0,0,1.24-.44v1.56a5.2,5.2,0,0,1-1.13.39A6.85,6.85,0,0,1,439.5,165.67Zm-.28-6.23a1.29,1.29,0,0,0-1,.41,1.91,1.91,0,0,0-.42,1.15h2.83a1.59,1.59,0,0,0-.39-1.15A1.32,1.32,0,0,0,439.22,159.44Z" transform="translate(-24.69 -112.33)"/><path class="f" d="M445.91,165.54l-2.81-7.39h2.11l1.42,4.21a7.33,7.33,0,0,1,.3,1.51h0a6.25,6.25,0,0,1,.3-1.51l1.42-4.21h2.11L448,165.54Z" transform="translate(-24.69 -112.33)"/><path class="g" d="M451.2,180.63a2.46,2.46,0,0,0-1.21-1.39l-11.45-5.48a2.07,2.07,0,0,0-.94-.18,4.17,4.17,0,0,0-.93.07l-11.45,5.52a2,2,0,0,0-1.13,1.39l-2.85,12.35a2.31,2.31,0,0,0,.41,1.8l7.92,9.8a2.75,2.75,0,0,0,1.73.79H444a1.9,1.9,0,0,0,1.73-.79l7.92-9.8a2.6,2.6,0,0,0,.45-1.8Z" transform="translate(-24.69 -112.33)"/><path class="e" d="M449.39,192.42h0s0,0,0,0-.12,0-.15,0a1.71,1.71,0,0,0-.45,0,.45.45,0,0,1-.23,0h0a8,8,0,0,1-1.27-.22.45.45,0,0,1-.27-.27,0,0,0,0,0,0,0h0l-.3-.08a9.66,9.66,0,0,0-.16-3.3,10.12,10.12,0,0,0-1.31-3.08l.23-.23h0v0a.48.48,0,0,1,.11-.34,6.06,6.06,0,0,1,1.05-.71h0l.23-.12c.15-.07.26-.15.41-.22s.07,0,.11-.08l0,0h0a.73.73,0,0,0,.15-1.05.72.72,0,0,0-.53-.26.92.92,0,0,0-.52.19h0l0,0s-.08.07-.11.07a1.83,1.83,0,0,0-.3.34c0,.07-.12.11-.15.15h0a6.65,6.65,0,0,1-.94.83.68.68,0,0,1-.23.07.23.23,0,0,1-.15,0h0l-.3.23c-.3-.3-.64-.6-.94-.9a9.62,9.62,0,0,0-4.88-2l0-.3h0l0,0a.57.57,0,0,1-.19-.3,7,7,0,0,1,.08-1.28v0c0-.07,0-.15,0-.22s0-.3.08-.45v-.23h0a.68.68,0,0,0-.64-.75.85.85,0,0,0-.6.23.73.73,0,0,0-.23.52h0v.19a1.78,1.78,0,0,0,.08.45.43.43,0,0,1,0,.22v0a7.67,7.67,0,0,1,.07,1.28.52.52,0,0,1-.19.3l0,0h0l0,.3c-.41,0-.83.11-1.28.18a9,9,0,0,0-4.62,2.63l-.22-.15h0s-.07,0-.15,0a.44.44,0,0,1-.22-.07,11.13,11.13,0,0,1-.94-.87h0a.71.71,0,0,0-.15-.15c-.12-.11-.19-.22-.3-.34s-.08,0-.12-.07l0,0h0a.92.92,0,0,0-.53-.19.68.68,0,0,0-.56.27.8.8,0,0,0,.15,1.05h0s0,0,0,0,.07.08.11.08l.41.23.23.11h0a10.73,10.73,0,0,1,1.05.71.4.4,0,0,1,.11.34v0h0l.23.22c0,.08-.08.11-.12.19a8.91,8.91,0,0,0-1.27,6.16l-.3.07h0a0,0,0,0,1,0,0,.59.59,0,0,1-.26.26,7.61,7.61,0,0,1-1.28.23h0a.56.56,0,0,0-.22,0c-.15,0-.3,0-.45,0s-.08,0-.15,0,0,0-.08,0h0a.73.73,0,0,0-.6.86.71.71,0,0,0,.75.53.33.33,0,0,0,.19,0h0s0,0,0,0,.07,0,.15,0a2.74,2.74,0,0,0,.41-.15.63.63,0,0,1,.22-.07h0a6.88,6.88,0,0,1,1.2-.34h0a.44.44,0,0,1,.3.11,0,0,0,0,1,0,0h0l.34,0a9,9,0,0,0,3.08,4.4,5.71,5.71,0,0,0,1,.67l-.15.3h0a0,0,0,0,0,0,0,.44.44,0,0,1,0,.37,5.5,5.5,0,0,1-.6,1.09v0a.5.5,0,0,1-.15.19c-.07.07-.15.22-.26.37s0,.08-.07.12,0,0,0,0h0a.78.78,0,0,0,.3,1,.66.66,0,0,0,.3.07.82.82,0,0,0,.71-.45h0s0,0,0,0,0-.08.07-.12.12-.26.15-.41l.08-.23h0a6.21,6.21,0,0,1,.49-1.16.54.54,0,0,1,.3-.22s0,0,0,0h0l.15-.3a8.88,8.88,0,0,0,3.26.6,9.36,9.36,0,0,0,2-.23,8.8,8.8,0,0,0,1.2-.34l.15.27h0s0,0,0,0a.58.58,0,0,1,.3.22c.19.38.34.75.49,1.13v0l.07.23a1.52,1.52,0,0,0,.15.41s0,.08.08.12,0,0,0,0h0a.76.76,0,0,0,1,.38.66.66,0,0,0,.34-.41,1.27,1.27,0,0,0,0-.61h0s0,0,0,0,0-.08-.07-.12a1.26,1.26,0,0,0-.27-.37.5.5,0,0,0-.15-.19v0a4.31,4.31,0,0,1-.6-1.09.48.48,0,0,1,0-.37,0,0,0,0,1,0,0h0l-.11-.3a9.35,9.35,0,0,0,4.09-5.1l.3,0h0s0,0,0,0a.39.39,0,0,1,.3-.12h0a6.42,6.42,0,0,1,1.2.34h0a.53.53,0,0,0,.23.08,2.26,2.26,0,0,0,.41.15,1.3,1.3,0,0,0,.15,0s0,0,.08,0h0a.3.3,0,0,0,.18,0,.81.81,0,0,0,.75-.53A1,1,0,0,0,449.39,192.42Zm-10.81-1.16-1,.49-1-.49-.3-1.09.72-.9h1.16l.71.9Zm6.12-2.44a7,7,0,0,1,.15,2.36l-3.57-1h0a.62.62,0,0,1-.45-.75.66.66,0,0,1,.15-.26l2.82-2.56a7.85,7.85,0,0,1,.9,2.22Zm-2-3.61-3,2.18a.63.63,0,0,1-.82-.15.32.32,0,0,1-.12-.26l-.22-3.79A7.11,7.11,0,0,1,442.67,185.21Zm-6.79-1.91.75-.15-.23,3.75h0a.62.62,0,0,1-.63.6.87.87,0,0,1-.31-.07l-3-2.22A7.22,7.22,0,0,1,435.88,183.3Zm-4.58,3.3,2.78,2.48h0a.6.6,0,0,1,.07.86.4.4,0,0,1-.3.19l-3.6,1.05A7.58,7.58,0,0,1,431.3,186.6Zm-.64,6.35,3.72-.64a.6.6,0,0,1,.63.49.44.44,0,0,1,0,.37h0l-1.43,3.46A7.41,7.41,0,0,1,430.66,193Zm8.52,4.65a7.45,7.45,0,0,1-1.65.19,8.68,8.68,0,0,1-2.37-.37l1.84-3.35a.59.59,0,0,1,.75-.15,1.87,1.87,0,0,1,.31.27h0l1.8,3.26C439.67,197.49,439.44,197.53,439.18,197.6Zm4.58-3.26a7.11,7.11,0,0,1-2.25,2.25l-1.46-3.49a.62.62,0,0,1,.33-.75,1.11,1.11,0,0,1,.34-.08l3.76.64A5.81,5.81,0,0,1,443.76,194.34Z" transform="translate(-24.69 -112.33)"/><path class="h" d="M419.67,210.91c.11-.12.21-.24.33-.36l.33-.37.3-.35.25-.29h1.29l-.75.85c-.26.27-.52.55-.81.83a5,5,0,0,1,.45.47c.15.18.31.36.46.56s.28.4.4.59.22.37.3.53H421l-.27-.41c-.1-.15-.21-.3-.31-.47a4.94,4.94,0,0,0-.36-.44,2.38,2.38,0,0,0-.36-.35v1.68H418.6v-5.5l1.08-.17v3.2" transform="translate(-24.69 -112.33)"/><path class="h" d="M426,213.22a5.57,5.57,0,0,1-.71.14,5.7,5.7,0,0,1-.92.07,2.22,2.22,0,0,1-.81-.13,1.32,1.32,0,0,1-.51-.36,1.47,1.47,0,0,1-.27-.58,2.89,2.89,0,0,1-.08-.72v-2.11h1.08v2a1.53,1.53,0,0,0,.14.75.57.57,0,0,0,.51.24h.25a1.75,1.75,0,0,0,.24,0v-2.94H426v3.69" transform="translate(-24.69 -112.33)"/><path class="h" d="M429.45,211.41c0-.7-.26-1-.77-1a1.24,1.24,0,0,0-.33,0,.81.81,0,0,0-.27.11v2l.2,0h.28a.74.74,0,0,0,.67-.3,1.43,1.43,0,0,0,.22-.81m1.1,0a2.37,2.37,0,0,1-.14.83,1.73,1.73,0,0,1-.38.64,1.81,1.81,0,0,1-.62.41,2.39,2.39,0,0,1-.84.14l-.42,0-.42,0-.39-.07a1.29,1.29,0,0,1-.33-.1v-5.36l1.08-.17v1.91a2.52,2.52,0,0,1,.39-.12,2,2,0,0,1,.42,0,1.63,1.63,0,0,1,.72.15,1.45,1.45,0,0,1,.52.4,1.71,1.71,0,0,1,.32.63,3.05,3.05,0,0,1,.09.81" transform="translate(-24.69 -112.33)"/><path class="h" d="M431.2,211.47a2.4,2.4,0,0,1,.15-.88,1.89,1.89,0,0,1,.41-.64,1.7,1.7,0,0,1,.59-.38,1.79,1.79,0,0,1,.68-.13,1.68,1.68,0,0,1,1.28.5,2.07,2.07,0,0,1,.47,1.46,1.62,1.62,0,0,1,0,.21,1.48,1.48,0,0,0,0,.2h-2.45a.7.7,0,0,0,.31.52,1.22,1.22,0,0,0,.74.2,3.79,3.79,0,0,0,.58-.05,2.54,2.54,0,0,0,.47-.14l.15.89a1.57,1.57,0,0,1-.23.09,1.94,1.94,0,0,1-.33.07l-.38.06-.41,0a2.3,2.3,0,0,1-.9-.15,1.59,1.59,0,0,1-1-1,3.73,3.73,0,0,1-.1-.8m2.54-.41a.86.86,0,0,0-.05-.27.63.63,0,0,0-.12-.23.68.68,0,0,0-.21-.17.72.72,0,0,0-.62,0,.69.69,0,0,0-.22.16.72.72,0,0,0-.14.24,1.31,1.31,0,0,0-.06.27h1.42" transform="translate(-24.69 -112.33)"/><path class="h" d="M437.93,210.49l-.34-.07a2,2,0,0,0-.42,0l-.25,0-.21,0v2.92h-1.08v-3.63a5.27,5.27,0,0,1,.68-.19,3.29,3.29,0,0,1,.88-.09h.21l.25,0,.25,0a.83.83,0,0,1,.21.06l-.18.9" transform="translate(-24.69 -112.33)"/><path class="h" d="M438.69,209.66l.72-.15a5.58,5.58,0,0,1,.91-.07,2.2,2.2,0,0,1,.8.13,1.14,1.14,0,0,1,.51.35,1.42,1.42,0,0,1,.27.55,2.81,2.81,0,0,1,.08.71v2.16H440.9v-2a1.48,1.48,0,0,0-.14-.74.56.56,0,0,0-.51-.22H440l-.23,0v3h-1.09v-3.68" transform="translate(-24.69 -112.33)"/><path class="h" d="M442.81,211.47a2.4,2.4,0,0,1,.15-.88,1.89,1.89,0,0,1,.41-.64,1.58,1.58,0,0,1,.58-.38,1.79,1.79,0,0,1,.68-.13,1.68,1.68,0,0,1,1.28.5,2,2,0,0,1,.48,1.46,1.62,1.62,0,0,1,0,.21c0,.08,0,.14,0,.2h-2.46a.7.7,0,0,0,.31.52,1.22,1.22,0,0,0,.74.2,3.79,3.79,0,0,0,.58-.05,2.9,2.9,0,0,0,.48-.14l.15.89a1.57,1.57,0,0,1-.23.09,2.29,2.29,0,0,1-.34.07l-.38.06-.41,0a2.3,2.3,0,0,1-.9-.15,1.76,1.76,0,0,1-.63-.41,1.79,1.79,0,0,1-.37-.64,2.79,2.79,0,0,1-.1-.8m2.53-.41a.86.86,0,0,0,0-.27.55.55,0,0,0-.12-.24.68.68,0,0,0-.21-.17.72.72,0,0,0-.62,0,.69.69,0,0,0-.22.16.72.72,0,0,0-.14.24,1.31,1.31,0,0,0-.06.27h1.42" transform="translate(-24.69 -112.33)"/><path class="h" d="M447.19,208.57l1.08-.17v1.13h1.31v.9h-1.31v1.34a1,1,0,0,0,.12.54.53.53,0,0,0,.49.2,2.15,2.15,0,0,0,.7-.12l.15.85a3.36,3.36,0,0,1-.45.14,2.88,2.88,0,0,1-.59.06,1.81,1.81,0,0,1-.73-.12,1.18,1.18,0,0,1-.46-.33,1.37,1.37,0,0,1-.25-.53,2.54,2.54,0,0,1-.06-.67v-3.22" transform="translate(-24.69 -112.33)"/><path class="h" d="M450.13,211.47a2.4,2.4,0,0,1,.15-.88,1.89,1.89,0,0,1,.41-.64,1.58,1.58,0,0,1,.58-.38,1.79,1.79,0,0,1,.68-.13,1.72,1.72,0,0,1,1.29.5,2.07,2.07,0,0,1,.47,1.46,1.62,1.62,0,0,1,0,.21c0,.08,0,.14,0,.2h-2.46a.73.73,0,0,0,.31.52,1.22,1.22,0,0,0,.74.2,3.79,3.79,0,0,0,.58-.05,2.43,2.43,0,0,0,.48-.14l.15.89a1.57,1.57,0,0,1-.23.09,1.86,1.86,0,0,1-.34.07l-.38.06-.41,0a2.3,2.3,0,0,1-.9-.15,1.76,1.76,0,0,1-.63-.41,1.79,1.79,0,0,1-.37-.64,3.73,3.73,0,0,1-.1-.8m2.54-.41a.86.86,0,0,0-.05-.27.68.68,0,0,0-.12-.24.68.68,0,0,0-.21-.17.72.72,0,0,0-.62,0,.69.69,0,0,0-.22.16.72.72,0,0,0-.14.24,1.31,1.31,0,0,0-.06.27h1.42" transform="translate(-24.69 -112.33)"/><path class="h" d="M455.65,212.58a.87.87,0,0,0,.42-.07.22.22,0,0,0,.12-.22.25.25,0,0,0-.16-.22,2.16,2.16,0,0,0-.49-.22,4,4,0,0,1-.46-.2,1.36,1.36,0,0,1-.35-.24,1,1,0,0,1-.22-.34,1.26,1.26,0,0,1-.08-.47,1,1,0,0,1,.4-.85,1.72,1.72,0,0,1,1.09-.31,4,4,0,0,1,.68.06,3.18,3.18,0,0,1,.51.13l-.19.84-.41-.12a2.15,2.15,0,0,0-.5,0c-.34,0-.51.09-.51.28a.5.5,0,0,0,0,.12.28.28,0,0,0,.09.1l.17.1a1.7,1.7,0,0,0,.29.12,5.18,5.18,0,0,1,.6.26,1.09,1.09,0,0,1,.36.28.84.84,0,0,1,.19.33,1.52,1.52,0,0,1,.06.42,1,1,0,0,1-.43.87,2.16,2.16,0,0,1-1.21.29,3,3,0,0,1-.85-.09l-.46-.14.18-.89a3.62,3.62,0,0,0,.56.17,3.48,3.48,0,0,0,.58.05" transform="translate(-24.69 -112.33)"/><path class="f" d="M430,332.69a3,3,0,0,1-1,2.39,4.19,4.19,0,0,1-2.78.82h-.88v3.44h-2v-9.66h3.08a4.15,4.15,0,0,1,2.68.75A2.77,2.77,0,0,1,430,332.69Zm-4.63,1.54h.68a2.22,2.22,0,0,0,1.41-.38,1.29,1.29,0,0,0,.47-1.09,1.34,1.34,0,0,0-.39-1.06,1.83,1.83,0,0,0-1.23-.34h-.94Z" transform="translate(-24.69 -112.33)"/><path class="f" d="M435.82,331.81a3.17,3.17,0,0,1,.68.06l-.15,1.89a2.49,2.49,0,0,0-.59-.06,2.15,2.15,0,0,0-1.51.49,1.8,1.8,0,0,0-.54,1.39v3.76h-2V332h1.52l.3,1.24h.1a2.88,2.88,0,0,1,.93-1A2.31,2.31,0,0,1,435.82,331.81Z" transform="translate(-24.69 -112.33)"/><path class="f" d="M444.56,335.63a4,4,0,0,1-.95,2.83,3.47,3.47,0,0,1-2.65,1,3.72,3.72,0,0,1-1.88-.46,3.12,3.12,0,0,1-1.25-1.34,4.51,4.51,0,0,1-.43-2,4,4,0,0,1,.94-2.81,3.48,3.48,0,0,1,2.66-1,3.75,3.75,0,0,1,1.88.47,3.13,3.13,0,0,1,1.25,1.32A4.49,4.49,0,0,1,444.56,335.63Zm-5.11,0a3.08,3.08,0,0,0,.36,1.66,1.51,1.51,0,0,0,2.34,0,3.25,3.25,0,0,0,.35-1.67,3,3,0,0,0-.36-1.64,1.52,1.52,0,0,0-2.33,0A3.06,3.06,0,0,0,439.45,335.63Z" transform="translate(-24.69 -112.33)"/><path class="f" d="M448.57,339.47a2.4,2.4,0,0,1-2.05-1,4.68,4.68,0,0,1-.74-2.8,4.6,4.6,0,0,1,.76-2.83,2.43,2.43,0,0,1,2.08-1,2.4,2.4,0,0,1,2.13,1.09h.07a7.64,7.64,0,0,1-.16-1.48v-2.36h2v10.28h-1.55l-.39-1h-.09A2.28,2.28,0,0,1,448.57,339.47Zm.71-1.6a1.36,1.36,0,0,0,1.13-.45,2.61,2.61,0,0,0,.39-1.53v-.22a3,3,0,0,0-.36-1.7,1.37,1.37,0,0,0-1.2-.52,1.19,1.19,0,0,0-1.05.57,3.18,3.18,0,0,0-.37,1.67,2.88,2.88,0,0,0,.38,1.63A1.22,1.22,0,0,0,449.28,337.87Z" transform="translate(-24.69 -112.33)"/><path class="g" d="M451.2,354.44a2.43,2.43,0,0,0-1.21-1.39l-11.45-5.48a2.08,2.08,0,0,0-.94-.19,3.66,3.66,0,0,0-.93.08L425.22,353a2,2,0,0,0-1.13,1.38l-2.85,12.36a2.32,2.32,0,0,0,.41,1.8l7.92,9.8a2.75,2.75,0,0,0,1.73.79H444a1.9,1.9,0,0,0,1.73-.79l7.92-9.8a2.63,2.63,0,0,0,.45-1.8Z" transform="translate(-24.69 -112.33)"/><path class="e" d="M449.39,366.23h0s0,0,0,0-.12,0-.15,0a2.27,2.27,0,0,0-.45,0,.45.45,0,0,1-.23,0h0a7.07,7.07,0,0,1-1.27-.23.44.44,0,0,1-.27-.26s0,0,0,0h0l-.3-.07a9.72,9.72,0,0,0-.16-3.31,10,10,0,0,0-1.31-3.07l.23-.23h0v0a.51.51,0,0,1,.11-.34,6.68,6.68,0,0,1,1.05-.71h0l.23-.11.41-.23s.07,0,.11-.07l0,0h0a.73.73,0,0,0,.15-1.05A.72.72,0,0,0,447,356a.91.91,0,0,0-.52.18h0l0,0s-.08.08-.11.08a1.79,1.79,0,0,0-.3.33.52.52,0,0,1-.15.15h0a5.6,5.6,0,0,1-.94.83.53.53,0,0,1-.23.08.23.23,0,0,1-.15,0h0l-.3.22c-.3-.3-.64-.6-.94-.9a9.61,9.61,0,0,0-4.88-1.95l0-.3h0l0,0a.54.54,0,0,1-.19-.3,7,7,0,0,1,.08-1.27v0c0-.08,0-.15,0-.23s0-.3.08-.45v-.22h0a.68.68,0,0,0-.64-.75.84.84,0,0,0-.6.22.75.75,0,0,0-.23.53h0v.18a1.77,1.77,0,0,0,.08.46.43.43,0,0,1,0,.22v0a7.49,7.49,0,0,1,.07,1.27.46.46,0,0,1-.19.3l0,0h0l0,.3c-.41,0-.83.12-1.28.19a9,9,0,0,0-4.62,2.63l-.22-.15h0s-.07,0-.15,0a.36.36,0,0,1-.22-.08,9.58,9.58,0,0,1-.94-.86h0a.42.42,0,0,0-.15-.15c-.12-.12-.19-.23-.3-.34s-.08,0-.12-.08l0,0h0a.86.86,0,0,0-.53-.19.67.67,0,0,0-.56.26.8.8,0,0,0,.15,1.05h0a0,0,0,0,1,0,0s.07.08.11.08a3.81,3.81,0,0,0,.41.22l.23.11h0a10.83,10.83,0,0,1,1.05.72.37.37,0,0,1,.11.33v0h0l.23.23c0,.07-.08.11-.12.19a8.87,8.87,0,0,0-1.27,6.15l-.3.08h0s0,0,0,0a.61.61,0,0,1-.26.27,6.71,6.71,0,0,1-1.28.22h0a.43.43,0,0,0-.22,0c-.15,0-.3,0-.45,0s-.08,0-.15,0,0,0-.08,0h0a.74.74,0,0,0-.6.87.7.7,0,0,0,.75.52.33.33,0,0,0,.19,0h0s0,0,0,0,.07,0,.15,0,.3-.11.41-.15a.49.49,0,0,1,.22-.08h0a6.08,6.08,0,0,1,1.2-.33h0a.4.4,0,0,1,.3.11,0,0,0,0,1,0,0h0l.34,0a9,9,0,0,0,3.08,4.39,5.76,5.76,0,0,0,1,.68l-.15.3h0a0,0,0,0,0,0,0,.44.44,0,0,1,0,.37,5.79,5.79,0,0,1-.6,1.09v0a.48.48,0,0,1-.15.18c-.07.08-.15.23-.26.38s0,.08-.07.11a0,0,0,0,1,0,0h0a.76.76,0,0,0,.3,1,.66.66,0,0,0,.3.08.84.84,0,0,0,.71-.45h0a0,0,0,0,1,0,0s0-.07.07-.11.12-.26.15-.41l.08-.23h0a5.94,5.94,0,0,1,.49-1.16.56.56,0,0,1,.3-.23s0,0,0,0h0l.15-.3a8.68,8.68,0,0,0,3.26.6,9.35,9.35,0,0,0,2-.22c.41-.08.83-.23,1.2-.34l.15.26h0s0,0,0,0a.6.6,0,0,1,.3.23c.19.37.34.75.49,1.12v0l.07.23a1.52,1.52,0,0,0,.15.41s0,.07.08.11a0,0,0,0,0,0,0h0a.73.73,0,0,0,1,.37.62.62,0,0,0,.34-.41,1.23,1.23,0,0,0,0-.6h0a0,0,0,0,0,0,0s0-.07-.07-.11a1.46,1.46,0,0,0-.27-.38.48.48,0,0,0-.15-.18v0a4.48,4.48,0,0,1-.6-1.09.48.48,0,0,1,0-.37,0,0,0,0,1,0,0h0l-.11-.3a9.41,9.41,0,0,0,4.09-5.11l.3,0h0a0,0,0,0,0,0,0,.42.42,0,0,1,.3-.11h0a5.74,5.74,0,0,1,1.2.34h0a.68.68,0,0,0,.23.07,1.7,1.7,0,0,0,.41.15s.08,0,.15,0,0,0,.08,0h0a.38.38,0,0,0,.18,0,.81.81,0,0,0,.75-.52A1,1,0,0,0,449.39,366.23Zm-10.81-1.17-1,.49-1-.49-.3-1.08.72-.91h1.16l.71.91Zm6.12-2.44a7,7,0,0,1,.15,2.37l-3.57-1h0a.63.63,0,0,1-.45-.76A.74.74,0,0,1,441,363l2.82-2.55a7.79,7.79,0,0,1,.9,2.21Zm-2-3.6-3,2.18a.63.63,0,0,1-.82-.15.34.34,0,0,1-.12-.27l-.22-3.79A7.13,7.13,0,0,1,442.67,359Zm-6.79-1.91.75-.15-.23,3.75h0a.62.62,0,0,1-.63.6,1.16,1.16,0,0,1-.31-.07l-3-2.22A7.14,7.14,0,0,1,435.88,357.11Zm-4.58,3.3,2.78,2.48h0a.6.6,0,0,1,.07.86.43.43,0,0,1-.3.19l-3.6,1.05A7.56,7.56,0,0,1,431.3,360.41Zm-.64,6.34,3.72-.63a.59.59,0,0,1,.63.48.46.46,0,0,1,0,.38h0l-1.43,3.45A7.33,7.33,0,0,1,430.66,366.75Zm8.52,4.66a8.1,8.1,0,0,1-1.65.19,8.33,8.33,0,0,1-2.37-.38l1.84-3.34a.58.58,0,0,1,.75-.15,2.38,2.38,0,0,1,.31.26h0l1.8,3.27A6.7,6.7,0,0,0,439.18,371.41Zm4.58-3.27a7.24,7.24,0,0,1-2.25,2.26l-1.46-3.5a.62.62,0,0,1,.33-.75,1.47,1.47,0,0,1,.34-.07l3.76.64A5.74,5.74,0,0,1,443.76,368.14Z" transform="translate(-24.69 -112.33)"/><path class="h" d="M419.67,384.72c.11-.12.21-.24.33-.36s.22-.26.33-.38l.3-.35.25-.29h1.29l-.75.85c-.26.28-.52.56-.81.84a5,5,0,0,1,.45.47c.15.18.31.36.46.56s.28.39.4.58.22.37.3.53H421l-.27-.41c-.1-.15-.21-.3-.31-.46a4.94,4.94,0,0,0-.36-.44,2.38,2.38,0,0,0-.36-.35v1.67H418.6v-5.49l1.08-.17v3.2" transform="translate(-24.69 -112.33)"/><path class="h" d="M426,387a5.57,5.57,0,0,1-.71.14,5.7,5.7,0,0,1-.92.07,2.22,2.22,0,0,1-.81-.13,1.32,1.32,0,0,1-.51-.36,1.5,1.5,0,0,1-.27-.57,2.89,2.89,0,0,1-.08-.72v-2.12h1.08v2a1.53,1.53,0,0,0,.14.75.57.57,0,0,0,.51.24h.25a1.75,1.75,0,0,0,.24,0v-2.95H426V387" transform="translate(-24.69 -112.33)"/><path class="h" d="M429.45,385.22c0-.7-.26-1.05-.77-1.05a1.24,1.24,0,0,0-.33,0,.66.66,0,0,0-.27.12v2l.2,0h.28a.76.76,0,0,0,.67-.3,1.43,1.43,0,0,0,.22-.81m1.1,0a2.37,2.37,0,0,1-.14.83,1.69,1.69,0,0,1-.38.63,1.81,1.81,0,0,1-.62.41,2.39,2.39,0,0,1-.84.14l-.42,0-.42,0-.39-.07a1.29,1.29,0,0,1-.33-.1v-5.35l1.08-.17v1.9a2.52,2.52,0,0,1,.39-.12,2,2,0,0,1,.42,0,1.63,1.63,0,0,1,.72.15,1.45,1.45,0,0,1,.52.4,1.68,1.68,0,0,1,.32.64,3.05,3.05,0,0,1,.09.81" transform="translate(-24.69 -112.33)"/><path class="h" d="M431.2,385.28a2.4,2.4,0,0,1,.15-.88,1.84,1.84,0,0,1,.41-.65,1.7,1.7,0,0,1,.59-.38,1.79,1.79,0,0,1,.68-.13,1.68,1.68,0,0,1,1.28.5,2.09,2.09,0,0,1,.47,1.47,1.62,1.62,0,0,1,0,.21,1.48,1.48,0,0,0,0,.2h-2.45a.7.7,0,0,0,.31.52,1.29,1.29,0,0,0,.74.2,3.79,3.79,0,0,0,.58,0,2.54,2.54,0,0,0,.47-.14l.15.88a1.57,1.57,0,0,1-.23.09,1.94,1.94,0,0,1-.33.07l-.38.06-.41,0a2.3,2.3,0,0,1-.9-.15,1.8,1.8,0,0,1-.64-.41,1.75,1.75,0,0,1-.37-.63,3.73,3.73,0,0,1-.1-.8m2.54-.41a.86.86,0,0,0-.05-.27.63.63,0,0,0-.12-.23.6.6,0,0,0-.21-.18.72.72,0,0,0-.62,0,.6.6,0,0,0-.22.17.72.72,0,0,0-.14.24,1.31,1.31,0,0,0-.06.27h1.42" transform="translate(-24.69 -112.33)"/><path class="h" d="M437.93,384.29l-.34-.07a2,2,0,0,0-.42,0l-.25,0-.21,0v2.92h-1.08v-3.63a5.27,5.27,0,0,1,.68-.19,3.29,3.29,0,0,1,.88-.09h.21l.25,0,.25,0a.83.83,0,0,1,.21.06l-.18.9" transform="translate(-24.69 -112.33)"/><path class="h" d="M438.69,383.46l.72-.15a5.58,5.58,0,0,1,.91-.07,2.2,2.2,0,0,1,.8.13,1.14,1.14,0,0,1,.51.35,1.42,1.42,0,0,1,.27.55,2.94,2.94,0,0,1,.08.72v2.15H440.9v-2a1.48,1.48,0,0,0-.14-.74.55.55,0,0,0-.51-.23H440l-.23,0v2.95h-1.09v-3.68" transform="translate(-24.69 -112.33)"/><path class="h" d="M442.81,385.28a2.4,2.4,0,0,1,.15-.88,1.84,1.84,0,0,1,.41-.65,1.58,1.58,0,0,1,.58-.38,1.79,1.79,0,0,1,.68-.13,1.68,1.68,0,0,1,1.28.5,2,2,0,0,1,.48,1.47,1.62,1.62,0,0,1,0,.21c0,.08,0,.14,0,.2h-2.46a.7.7,0,0,0,.31.52,1.29,1.29,0,0,0,.74.2,3.79,3.79,0,0,0,.58,0,2.9,2.9,0,0,0,.48-.14l.15.88a1.57,1.57,0,0,1-.23.09,2.29,2.29,0,0,1-.34.07l-.38.06-.41,0a2.3,2.3,0,0,1-.9-.15,1.62,1.62,0,0,1-1-1,2.79,2.79,0,0,1-.1-.8m2.53-.41a.86.86,0,0,0,0-.27.55.55,0,0,0-.12-.24.6.6,0,0,0-.21-.18.72.72,0,0,0-.62,0,.6.6,0,0,0-.22.17.72.72,0,0,0-.14.24,1.31,1.31,0,0,0-.06.27h1.42" transform="translate(-24.69 -112.33)"/><path class="h" d="M447.19,382.38l1.08-.17v1.12h1.31v.9h-1.31v1.35a1,1,0,0,0,.12.54.53.53,0,0,0,.49.2,2.15,2.15,0,0,0,.7-.12l.15.84a3.36,3.36,0,0,1-.45.14,2.88,2.88,0,0,1-.59.06,1.81,1.81,0,0,1-.73-.12,1.18,1.18,0,0,1-.46-.33,1.39,1.39,0,0,1-.25-.52,2.54,2.54,0,0,1-.06-.67v-3.22" transform="translate(-24.69 -112.33)"/><path class="h" d="M450.13,385.28a2.4,2.4,0,0,1,.15-.88,1.84,1.84,0,0,1,.41-.65,1.58,1.58,0,0,1,.58-.38,1.79,1.79,0,0,1,.68-.13,1.72,1.72,0,0,1,1.29.5,2.09,2.09,0,0,1,.47,1.47,1.62,1.62,0,0,1,0,.21c0,.08,0,.14,0,.2h-2.46a.73.73,0,0,0,.31.52,1.29,1.29,0,0,0,.74.2,3.79,3.79,0,0,0,.58,0,2.43,2.43,0,0,0,.48-.14l.15.88a1.57,1.57,0,0,1-.23.09,1.86,1.86,0,0,1-.34.07l-.38.06-.41,0a2.3,2.3,0,0,1-.9-.15,1.62,1.62,0,0,1-1-1,3.73,3.73,0,0,1-.1-.8m2.54-.41a.86.86,0,0,0-.05-.27.68.68,0,0,0-.12-.24.6.6,0,0,0-.21-.18.72.72,0,0,0-.62,0,.6.6,0,0,0-.22.17.72.72,0,0,0-.14.24,1.31,1.31,0,0,0-.06.27h1.42" transform="translate(-24.69 -112.33)"/><path class="h" d="M455.65,386.38a1,1,0,0,0,.42-.06.22.22,0,0,0,.12-.22.25.25,0,0,0-.16-.22,2.16,2.16,0,0,0-.49-.22,4,4,0,0,1-.46-.2,1.36,1.36,0,0,1-.35-.24,1,1,0,0,1-.22-.34,1.26,1.26,0,0,1-.08-.47,1,1,0,0,1,.4-.86,1.72,1.72,0,0,1,1.09-.31,4,4,0,0,1,.68.06,3.18,3.18,0,0,1,.51.13l-.19.84-.41-.12a2.15,2.15,0,0,0-.5,0c-.34,0-.51.09-.51.29a.5.5,0,0,0,0,.12.28.28,0,0,0,.09.1l.17.1a1.7,1.7,0,0,0,.29.12,5.18,5.18,0,0,1,.6.26,1.09,1.09,0,0,1,.36.28.84.84,0,0,1,.19.33,1.52,1.52,0,0,1,.06.42,1,1,0,0,1-.43.86,2.16,2.16,0,0,1-1.21.29,3,3,0,0,1-.85-.09l-.46-.14.18-.88a3.62,3.62,0,0,0,.56.17,5.11,5.11,0,0,0,.58,0" transform="translate(-24.69 -112.33)"/><polygon class="i" points="395.02 164.08 384.7 156.34 384.7 163.43 338.16 163.43 338.16 164.72 384.7 164.72 384.7 171.81 395.02 164.08"/><path class="j" d="M164.35,132.24h4.41a18.8,18.8,0,0,1,28.94,0h4.42a23.1,23.1,0,0,0-3.76-4.48,12.59,12.59,0,0,0,2.81-3c1.87-2.68,2.57-5.43,1.55-6.14s-3.36.88-5.24,3.56a12.85,12.85,0,0,0-1.76,3.46c-.42-.29-.86-.56-1.3-.82a22.17,22.17,0,0,0-8.88-2.88,12.78,12.78,0,0,0,.51-3.73c0-3.27-1-5.93-2.25-5.93s-2.25,2.66-2.25,5.93a13,13,0,0,0,.48,3.64,22.26,22.26,0,0,0-10.34,3.17,13.89,13.89,0,0,0-1.55-2.84c-1.88-2.68-4.22-4.27-5.24-3.56s-.32,3.46,1.56,6.14a13.5,13.5,0,0,0,2.18,2.47A22.28,22.28,0,0,0,164.35,132.24Z" transform="translate(-24.69 -112.33)"/><path class="k" d="M155.81,137h3.54v4.8h4.28V137h3.54v13.47h-3.54v-5.14h-4.28v5.14h-3.54Zm15.43,13.47V137h8.37v2.93h-4.83v2.19h4.28v3h-4.28v2.48h4.83v2.89Zm12.26,0V137H187v9.91h4.85v3.56ZM197.38,137l5.5,5,5.48-5H210v13.47H206.4v-6.91l-3.52,3.21-3.54-3.2v6.9h-3.56V137Z" transform="translate(-24.69 -112.33)"/><path class="j" d="M201.43,155.06H197a18.78,18.78,0,0,1-28.94,0h-4.42a22.8,22.8,0,0,0,3.77,4.48,12.2,12.2,0,0,0-2.81,3c-1.88,2.68-2.57,5.43-1.56,6.14s3.36-.88,5.24-3.56a12.81,12.81,0,0,0,1.76-3.45c.43.28.86.56,1.3.81a22.45,22.45,0,0,0,8.88,2.89,12.71,12.71,0,0,0-.5,3.73c0,3.27,1,5.92,2.24,5.92s2.25-2.65,2.25-5.92a13.48,13.48,0,0,0-.47-3.65,22.18,22.18,0,0,0,10.34-3.17,13.35,13.35,0,0,0,1.54,2.84c1.88,2.68,4.22,4.27,5.24,3.56s.32-3.46-1.55-6.14a14.27,14.27,0,0,0-2.19-2.47A22.59,22.59,0,0,0,201.43,155.06Z" transform="translate(-24.69 -112.33)"/><path class="b" d="M170.55,299.42l2-3.78H174l-2.75,5.07v3.21h-1.36v-3.17l-2.75-5.11h1.47Z" transform="translate(-24.69 -112.33)"/><path class="b" d="M180.22,303.92l-.83-2.3h-3.17l-.81,2.3H174l3.1-8.32h1.48l3.1,8.32ZM179,300.45l-.77-2.25q-.09-.22-.24-.72c-.1-.32-.17-.56-.2-.71-.11.46-.26,1-.45,1.52l-.75,2.16Z" transform="translate(-24.69 -112.33)"/><path class="b" d="M186.33,303.92l-2.4-6.92h-.05c.07,1,.1,2,.1,2.89v4h-1.23v-8.28h1.91l2.3,6.59h0l2.37-6.59h1.92v8.28H190v-4.1c0-.41,0-.94,0-1.61s0-1.06.05-1.2H190l-2.48,6.91Z" transform="translate(-24.69 -112.33)"/><path class="b" d="M193.46,303.92v-8.28h1.35v7.12h3.51v1.16Z" transform="translate(-24.69 -112.33)"/><polygon points="197.81 172.36 118.59 172.36 136.65 145.28 182.79 145.28 182.79 149.84 197.81 172.36"/><polygon class="e" points="119.06 172.11 197.34 172.11 182.55 149.91 182.55 145.53 136.78 145.53 119.06 172.11"/><polygon class="l" points="136.71 145.4 142.68 145.4 124.79 172.23 118.83 172.23 127.77 158.82 118.83 145.4 124.79 145.4 130.75 154.35 136.71 145.4"/><polygon class="l" points="126.28 172.23 132.24 172.23 144.16 154.35 144.16 172.23 150.13 172.23 150.13 145.4 144.16 145.4 126.28 172.23"/><polygon class="l" points="151.37 172.23 157.33 172.23 157.33 154.35 163.29 163.29 169.25 154.35 169.25 172.23 175.22 172.23 175.22 145.4 167.76 145.4 163.29 154.35 157.33 145.4 151.37 145.4 151.37 172.23"/><polygon class="l" points="176.71 172.23 197.57 172.23 193.6 166.27 182.67 166.27 182.67 145.4 176.71 145.4 176.71 172.23"/><polygon class="i" points="158.2 132.02 165.94 121.71 158.85 121.71 158.85 75.17 157.56 75.17 157.56 121.71 150.47 121.71 158.2 132.02"/><polygon class="i" points="100.04 163.37 89.72 155.63 89.72 162.73 58.66 162.73 58.66 164.02 89.72 164.02 89.72 171.11 100.04 163.37"/><polygon class="i" points="255.81 163.37 245.5 155.63 245.5 162.73 214.43 162.73 214.43 164.02 245.5 164.02 245.5 171.11 255.81 163.37"/><polygon class="i" points="378.82 97.76 366.06 99.58 371.07 104.6 338.16 137.51 339.07 138.42 371.98 105.51 377 110.52 378.82 97.76"/><polygon class="i" points="378.82 230.39 377 217.63 371.98 222.64 339.07 189.74 338.16 190.65 371.07 223.56 366.06 228.57 378.82 230.39"/></svg>